<?xml version="1.0" encoding="UTF-8"?>
<svg id="_レイヤー_2" data-name="レイヤー 2" xmlns="http://www.w3.org/2000/svg" viewBox="0 0 400 140">
  <defs>
    <style>
      .cls-1 {
        fill: none;
      }

      .cls-2 {
        fill: #1f1f1f;
      }
    </style>
  </defs>
  <g id="_レイヤー_1-2" data-name="レイヤー 1">
    <g>
      <rect class="cls-1" width="400" height="140"/>
      <g>
        <path class="cls-2" d="M96.01,49.32v5.88h-15.62l-3.38,4.66h19.01v5.86H62.43l11.81-16.39h21.77Z"/>
        <path class="cls-2" d="M123.92,65.72h-28.01l5.93-8.06h-4.68v-5.16h16.87l-5.98,8.06h7.92v-8.06h7.94v13.23Z"/>
        <path class="cls-2" d="M134.22,49.32v11.23h13.22v5.16h-21.17v-16.39h7.94Zm13.22,3.17v5.16h-9.53l-3.7-5.16h13.22Z"/>
        <path class="cls-2" d="M157.09,49.32v11.23h13.23v5.16h-21.17v-16.39h7.94Zm13.23,3.17v5.16h-9.53l-3.7-5.16h13.23Z"/>
        <path class="cls-2" d="M172.02,49.32h8.47v2.4h-8.47v-2.4Zm8.47,3.17v13.23h-8.47v-13.23h8.47Z"/>
        <path class="cls-2" d="M198.75,57.65h-7.92v8.06h-7.94v-13.23h28.01l-5.93,8.06h4.68v5.16h-16.87l5.98-8.06Z"/>
        <path class="cls-2" d="M238.45,52.49v16.37h-19.42v-3.14h-11.23l9.53-13.23h21.12Zm-15.67,4.9l-2.71,3.67h7.78l-2.38,3.14h5.04v-6.82h-7.73Z"/>
        <path class="cls-2" d="M240.9,49.32h46.44l-7.46,10.54h6.46v5.86h-19.56l7.68-10.51h-9.5v10.51h-8.81v-10.51h-6.43v10.51h-8.81v-16.39Z"/>
        <path class="cls-2" d="M302.77,65.72h-18.22l15.1-8.06h-12.48v-5.16h23.55v8.06h3.98v5.16h-8.42l-3.5-4.9v4.9Zm-6.05-4.92h6.05v-3.24l-6.05,3.24Z"/>
        <path class="cls-2" d="M323.82,49.32v11.23h13.22v5.16h-21.17v-16.39h7.94Zm13.22,3.17v5.16h-9.53l-3.7-5.16h13.22Z"/>
      </g>
    </g>
  </g>
</svg>